<svg width="16" height="20" viewBox="0 0 16 20" fill="none" xmlns="http://www.w3.org/2000/svg">
    <path fill-rule="evenodd" clip-rule="evenodd"
        d="M9.16 9.72C9.08631 9.78866 9.02721 9.87146 8.98622 9.96346C8.94523 10.0555 8.92319 10.1548 8.92141 10.2555C8.91963 10.3562 8.93816 10.4562 8.97588 10.5496C9.0136 10.643 9.06974 10.7278 9.14096 10.799C9.21218 10.8703 9.29701 10.9264 9.3904 10.9641C9.48379 11.0018 9.58382 11.0204 9.68452 11.0186C9.78523 11.0168 9.88454 10.9948 9.97654 10.9538C10.0685 10.9128 10.1513 10.8537 10.22 10.78L13.47 7.53L14 7L13.47 6.47L10.22 3.22C10.0778 3.08752 9.88978 3.0154 9.69548 3.01882C9.50118 3.02225 9.31579 3.10096 9.17838 3.23838C9.04097 3.37579 8.96225 3.56118 8.95883 3.75548C8.9554 3.94978 9.02752 4.13782 9.16 4.28L11.13 6.25H6.752C5.49222 6.25 4.28404 6.75044 3.39324 7.64124C2.50245 8.53204 2.002 9.74022 2.002 11V14.25C2.002 14.4489 2.08102 14.6397 2.22167 14.7803C2.36232 14.921 2.55309 15 2.752 15C2.95091 15 3.14168 14.921 3.28233 14.7803C3.42298 14.6397 3.502 14.4489 3.502 14.25V11C3.502 10.138 3.84441 9.3114 4.4539 8.7019C5.0634 8.09241 5.89005 7.75 6.752 7.75H11.129L9.16 9.72Z"
        fill="black" />
</svg>