<svg width="24" height="20" viewBox="0 0 16 20" fill="none" xmlns="http://www.w3.org/2000/svg">
<path fill-rule="evenodd" clip-rule="evenodd" d="M6.84 9.72C6.91369 9.78866 6.97279 9.87146 7.01378 9.96346C7.05477 10.0555 7.07681 10.1548 7.07859 10.2555C7.08037 10.3562 7.06184 10.4562 7.02412 10.5496C6.9864 10.643 6.93026 10.7278 6.85904 10.799C6.78782 10.8703 6.70299 10.9264 6.6096 10.9641C6.51621 11.0018 6.41618 11.0204 6.31548 11.0186C6.21477 11.0168 6.11546 10.9948 6.02346 10.9538C5.93146 10.9128 5.84866 10.8537 5.78 10.78L2.53 7.53L2 7L2.53 6.47L5.78 3.22C5.92218 3.08752 6.11022 3.0154 6.30452 3.01883C6.49882 3.02225 6.68421 3.10097 6.82162 3.23838C6.95903 3.37579 7.03775 3.56118 7.04117 3.75548C7.0446 3.94978 6.97248 4.13783 6.84 4.28L4.87 6.25H9.248C10.5078 6.25 11.716 6.75045 12.6068 7.64124C13.4976 8.53204 13.998 9.74022 13.998 11V14.25C13.998 14.4489 13.919 14.6397 13.7783 14.7803C13.6377 14.921 13.4469 15 13.248 15C13.0491 15 12.8583 14.921 12.7177 14.7803C12.577 14.6397 12.498 14.4489 12.498 14.25V11C12.498 10.138 12.1556 9.3114 11.5461 8.7019C10.9366 8.09241 10.11 7.75 9.248 7.75H4.871L6.84 9.72Z" fill="black"/>
</svg>
